# xmcd
#
# Track frame offsets:
#	150
#	12825
#	33225
#	50325
#	65325
#	81900
#	100650
#	117225
#	132750
#	147750
#	163275
#	180825
#	199425
#	213450
#	225075
#	243375
#	256575
#	269700
#	285975
#	306450
#
# Disc length: 4392 seconds
#
# Revision: 1
# Processed by: cddbd v1.5.2PL0 Copyright (c) Steve Scherf et al.
# Submitted via: audiograbber 1.83.01
#
DISCID=11112614
DTITLE=LeAnn Rimes - AMS-9001
DYEAR=1900
DGENRE=
TTITLE0=Blue
TTITLE1=How Do I Live
TTITLE2=I Need You
TTITLE3=Big Deal
TTITLE4=One Way Ticket
TTITLE5=Commitment
TTITLE6=You Light Up My Life
TTITLE7=Nothing New Under The Moon
TTITLE8=On The Side Of Angels
TTITLE9=The Light In Your Eyes
TTITLE10=Unchained Melody
TTITLE11=Looking Through Your Eyes
TTITLE12=The Cattle Call
TTITLE13=Cowboy's Swettheart
TTITLE14=Feels Like Home
TTITLE15=Hurt Me
TTITLE16=These Arms Of Mine
TTITLE17=Cant Fight The Moonlight
TTITLE18=Please Remember
TTITLE19=no sound
EXTD=
EXTT0=
EXTT1=
EXTT2=
EXTT3=
EXTT4=
EXTT5=
EXTT6=
EXTT7=
EXTT8=
EXTT9=
EXTT10=
EXTT11=
EXTT12=
EXTT13=
EXTT14=
EXTT15=
EXTT16=
EXTT17=
EXTT18=
EXTT19=
PLAYORDER=
